<svg id="svg" version="1.1" xmlns="http://www.w3.org/2000/svg" xmlns:xlink="http://www.w3.org/1999/xlink" width="70" height="70" viewBox="0, 0, 400,375.69721115537845"><g id="svgg"><path id="path0" d="M194.782 95.760 L 193.888 95.930 194.030 102.382 L 194.173 108.834 188.534 109.294 C 170.091 110.797,156.427 112.863,138.910 116.796 C 126.180 119.654,127.574 119.558,127.068 117.614 C 125.481 111.518,123.512 105.639,123.057 105.639 C 121.926 105.639,117.955 106.941,117.792 107.366 C 117.696 107.615,118.398 110.655,119.351 114.122 C 121.525 122.028,122.030 121.079,114.286 123.644 C 97.420 129.232,79.774 138.251,69.649 146.459 L 67.682 148.054 65.129 145.361 C 63.724 143.881,61.743 141.739,60.726 140.602 C 59.710 139.464,57.708 137.288,56.279 135.765 L 53.680 132.997 51.461 135.193 C 50.241 136.400,49.286 137.502,49.339 137.640 C 49.392 137.779,51.911 140.574,54.935 143.852 C 57.960 147.130,60.889 150.357,61.445 151.023 L 62.455 152.234 58.765 156.297 C 49.436 166.570,44.198 176.114,43.083 184.868 L 42.831 186.842 79.638 186.842 L 116.445 186.842 120.159 188.962 C 130.956 195.125,147.782 202.272,159.398 205.629 C 174.233 209.916,187.127 212.275,199.436 212.953 C 201.711 213.079,204.290 213.271,205.169 213.381 L 206.767 213.580 206.767 216.752 L 206.767 219.925 209.962 219.925 L 213.158 219.925 213.158 216.794 L 213.158 213.664 221.711 213.218 C 252.694 211.601,286.093 202.197,309.420 188.521 L 312.284 186.842 339.062 186.842 L 365.840 186.842 365.579 187.688 C 359.929 206.023,333.630 226.079,300.429 237.374 C 277.268 245.253,254.265 249.370,217.293 252.255 C 213.161 252.578,197.658 253.359,195.004 253.379 C 194.403 253.383,194.342 253.714,194.440 256.434 L 194.549 259.484 199.624 259.426 C 202.415 259.395,207.562 259.207,211.060 259.009 C 214.558 258.811,217.519 258.747,217.639 258.867 C 217.759 258.987,217.918 261.693,217.991 264.881 L 218.125 270.677 221.464 270.677 L 224.802 270.677 224.627 267.951 C 224.531 266.452,224.366 263.673,224.262 261.774 L 224.072 258.323 226.040 258.114 C 227.122 258.000,230.799 257.639,234.211 257.313 C 251.933 255.622,275.600 251.476,287.592 247.962 C 291.433 246.837,290.856 246.193,293.030 254.041 C 295.044 261.314,294.657 260.915,298.544 259.734 C 300.598 259.110,301.113 258.810,300.966 258.324 C 299.880 254.739,297.368 245.788,297.368 245.503 C 297.368 245.300,298.595 244.765,300.094 244.312 C 303.187 243.380,314.377 239.117,319.173 237.045 C 327.740 233.343,339.365 226.523,346.513 221.005 C 348.658 219.349,350.546 218.048,350.709 218.114 C 350.872 218.179,352.329 219.671,353.947 221.429 C 355.566 223.186,358.653 226.525,360.807 228.848 L 364.725 233.072 366.949 231.114 C 369.749 228.649,369.857 229.106,365.320 224.227 C 353.941 211.991,354.926 213.610,357.426 211.251 C 364.909 204.189,372.093 191.705,373.474 183.365 L 373.956 180.451 343.922 180.451 L 313.888 180.451 311.707 179.350 C 289.627 168.204,250.855 157.550,225.376 155.628 C 222.274 155.394,218.299 155.089,216.541 154.951 L 213.346 154.699 213.238 151.034 L 213.131 147.368 209.949 147.368 L 206.767 147.368 206.767 151.069 L 206.767 154.769 199.154 155.010 C 168.799 155.972,136.427 165.350,116.993 178.811 L 114.626 180.451 82.899 180.451 C 65.195 180.451,51.082 180.306,50.969 180.122 C 50.592 179.512,55.226 170.889,57.763 167.481 C 80.971 136.308,135.684 117.266,210.808 114.216 L 222.180 113.754 222.180 110.583 L 222.180 107.411 215.883 107.659 C 212.420 107.796,207.621 108.012,205.219 108.139 L 200.852 108.371 200.577 101.930 L 200.302 95.489 197.989 95.540 C 196.717 95.568,195.274 95.667,194.782 95.760 M192.481 161.879 C 192.481 162.002,191.628 162.870,190.585 163.808 C 186.904 167.118,184.065 171.921,182.526 177.444 L 181.741 180.263 154.895 180.360 C 140.130 180.413,127.911 180.317,127.740 180.146 C 127.437 179.843,136.524 175.261,140.602 173.663 C 154.877 168.064,165.093 165.345,180.639 163.006 C 189.177 161.722,192.481 161.407,192.481 161.879 M235.649 163.179 C 249.202 165.218,258.496 167.237,269.956 170.634 C 282.267 174.283,296.910 179.556,296.334 180.133 C 296.156 180.310,283.182 180.413,267.503 180.360 L 238.995 180.263 238.485 178.270 C 237.157 173.077,234.413 168.177,230.710 164.380 C 228.411 162.022,228.238 162.064,235.649 163.179 M206.767 164.256 C 206.767 165.616,206.673 165.749,205.545 165.984 C 199.450 167.250,194.379 172.070,191.411 179.417 C 191.088 180.218,190.743 180.451,189.880 180.451 C 188.335 180.451,188.252 180.123,189.137 177.503 C 191.280 171.156,196.590 165.987,203.482 163.537 C 206.487 162.469,206.767 162.530,206.767 164.256 M217.056 163.517 C 224.705 166.148,231.437 173.304,232.062 179.467 C 232.264 181.456,228.982 180.517,228.257 178.379 C 226.331 172.688,221.756 168.383,215.315 166.201 C 213.464 165.574,213.339 165.452,213.229 164.158 C 213.087 162.484,213.738 162.375,217.056 163.517 M206.767 176.504 L 206.767 180.451 202.654 180.451 C 200.168 180.451,198.443 180.294,198.295 180.053 C 197.684 179.065,201.806 174.399,204.285 173.273 C 206.784 172.138,206.767 172.117,206.767 176.504 M216.108 173.467 C 218.597 174.728,221.805 178.446,221.805 180.069 C 221.805 180.343,220.424 180.441,217.575 180.369 L 213.346 180.263 213.239 176.410 C 213.116 171.989,213.141 171.964,216.108 173.467 M182.222 190.697 C 183.211 195.288,185.612 200.352,188.201 203.312 C 190.453 205.886,190.664 205.839,182.856 204.505 C 165.357 201.515,150.515 196.699,131.861 187.958 C 129.667 186.930,131.574 186.842,156.109 186.843 L 181.391 186.845 182.222 190.697 M191.307 189.165 C 192.623 195.539,197.740 201.151,204.135 203.234 C 206.527 204.013,206.582 204.061,206.699 205.452 L 206.819 206.873 205.278 206.666 C 198.303 205.731,190.536 198.071,188.583 190.202 C 187.751 186.852,187.754 186.842,189.398 186.842 L 190.827 186.842 191.307 189.165 M206.767 192.096 L 206.767 197.350 205.840 196.997 C 201.604 195.387,198.544 192.025,197.538 187.876 L 197.287 186.842 202.027 186.842 L 206.767 186.842 206.767 192.096 M222.629 187.782 C 222.062 191.476,217.961 195.934,214.004 197.158 L 213.158 197.419 213.158 192.119 L 213.158 186.820 217.951 186.925 C 222.503 187.025,222.739 187.068,222.629 187.782 M232.707 187.200 C 232.707 195.011,224.023 204.818,215.414 206.730 C 211.809 207.530,212.138 204.496,215.789 203.266 C 223.006 200.837,227.539 195.605,229.125 187.876 C 229.339 186.836,232.707 186.200,232.707 187.200 M297.876 187.236 C 297.203 187.910,282.777 193.961,277.632 195.729 C 262.269 201.006,250.401 203.790,234.774 205.782 C 229.631 206.438,229.614 206.426,232.060 203.784 C 235.319 200.264,238.318 193.777,238.922 188.943 L 239.184 186.842 268.728 186.842 C 289.338 186.842,298.151 186.961,297.876 187.236 " stroke="none" fill="#f9f9f9" fill-rule="evenodd"></path><path id="path1" d="M0.000 187.970 L 0.000 375.940 200.000 375.940 L 400.000 375.940 400.000 187.970 L 400.000 0.000 200.000 0.000 L 0.000 0.000 0.000 187.970 M200.524 95.707 C 200.649 96.035,200.754 98.530,200.757 101.253 C 200.765 108.485,200.469 108.036,205.037 107.762 C 207.126 107.637,211.909 107.424,215.666 107.288 L 222.498 107.041 222.621 110.308 C 222.772 114.300,222.785 114.286,218.816 114.286 C 195.173 114.290,158.250 118.827,134.604 124.633 C 93.342 134.764,60.533 155.978,51.908 178.102 L 51.139 180.075 82.747 180.075 L 114.355 180.075 119.177 177.080 C 140.404 163.893,170.400 155.426,198.765 154.617 L 206.365 154.400 206.472 150.790 L 206.579 147.180 210.056 147.072 L 213.534 146.964 213.534 150.682 L 213.534 154.399 218.366 154.654 C 238.121 155.697,266.120 161.429,285.338 168.364 C 292.326 170.886,302.905 175.092,308.054 177.397 L 314.040 180.075 344.099 180.075 L 374.157 180.075 373.898 182.425 C 373.056 190.044,367.236 200.967,359.423 209.586 C 357.549 211.654,356.058 213.467,356.109 213.616 C 356.198 213.873,363.754 222.210,367.939 226.669 L 369.901 228.759 367.375 231.061 C 364.304 233.859,365.383 234.440,357.519 225.750 C 353.900 221.752,350.816 218.467,350.664 218.451 C 350.512 218.434,348.990 219.489,347.280 220.795 C 334.878 230.271,320.003 237.951,303.448 243.426 C 300.485 244.405,297.988 245.397,297.900 245.630 C 297.811 245.862,298.562 248.978,299.568 252.553 C 301.663 259.996,301.861 259.256,297.443 260.480 L 294.773 261.220 294.180 259.088 C 292.888 254.440,290.919 247.936,290.755 247.772 C 290.660 247.677,287.668 248.303,284.107 249.162 C 265.068 253.758,251.546 255.984,231.856 257.763 L 224.427 258.434 224.676 264.524 L 224.926 270.614 223.271 270.860 C 222.361 270.995,220.771 271.051,219.737 270.985 L 217.857 270.865 217.669 265.162 C 217.566 262.026,217.388 259.368,217.275 259.254 C 217.161 259.141,214.031 259.206,210.320 259.398 C 206.608 259.591,201.524 259.850,199.022 259.975 L 194.472 260.202 194.232 258.202 C 194.100 257.103,193.990 255.501,193.988 254.643 L 193.985 253.083 198.590 252.865 C 201.123 252.745,207.002 252.465,211.654 252.243 C 249.217 250.450,282.939 244.106,308.835 233.962 C 335.981 223.328,355.085 208.371,363.744 190.973 C 364.662 189.128,365.414 187.528,365.414 187.418 C 365.414 187.308,353.511 187.218,338.964 187.218 L 312.513 187.218 305.787 190.771 C 289.168 199.549,269.948 206.312,251.211 209.976 C 240.685 212.034,224.080 213.910,216.392 213.910 L 213.564 213.910 213.455 217.011 L 213.346 220.113 209.962 220.113 L 206.579 220.113 206.470 217.046 L 206.362 213.980 204.215 213.768 C 203.034 213.651,200.630 213.456,198.872 213.335 C 172.714 211.532,141.333 201.770,118.314 188.276 L 116.515 187.222 79.592 187.126 L 42.669 187.030 42.788 184.774 C 43.182 177.274,49.772 165.462,59.198 155.360 C 62.088 152.264,62.089 152.261,61.402 151.398 C 61.024 150.923,58.092 147.698,54.887 144.230 C 47.924 136.696,48.379 137.758,51.018 135.205 C 53.221 133.073,54.227 132.647,54.775 133.614 C 55.582 135.042,67.481 147.377,67.897 147.217 C 68.158 147.117,70.014 145.822,72.022 144.339 C 82.936 136.278,96.162 129.670,113.739 123.495 C 117.657 122.119,120.892 120.963,120.929 120.926 C 121.010 120.844,119.185 114.314,118.090 110.769 C 116.891 106.890,116.856 106.967,120.232 106.056 C 123.936 105.057,123.930 105.057,124.220 106.297 C 124.866 109.063,127.577 118.640,127.778 118.868 C 127.904 119.011,130.968 118.378,134.586 117.463 C 148.879 113.848,174.266 109.825,189.098 108.825 C 194.645 108.451,194.132 109.187,193.823 102.031 C 193.677 98.646,193.664 95.704,193.794 95.494 C 194.209 94.822,200.257 95.013,200.524 95.707 M188.910 162.274 C 188.289 162.347,186.175 162.585,184.211 162.804 C 169.829 164.407,152.911 168.815,140.125 174.291 C 135.204 176.399,128.688 179.485,128.227 179.925 C 128.141 180.008,140.084 180.075,154.768 180.075 L 181.465 180.075 182.294 176.939 C 183.378 172.835,185.992 168.255,189.229 164.788 C 191.972 161.849,191.981 161.916,188.910 162.274 M231.448 164.756 C 235.020 168.549,237.399 172.814,238.539 177.464 L 239.179 180.075 267.584 180.075 C 283.207 180.075,295.912 179.998,295.818 179.903 C 295.099 179.184,275.265 172.343,268.421 170.454 C 256.859 167.262,247.262 165.180,237.406 163.726 C 228.863 162.466,229.233 162.402,231.448 164.756 M203.191 163.884 C 196.401 166.302,190.952 172.044,189.163 178.665 C 188.792 180.038,188.809 180.075,189.786 180.072 C 190.682 180.069,190.948 179.717,192.278 176.782 C 194.693 171.452,198.730 167.830,204.135 166.147 C 206.009 165.564,206.214 165.393,206.321 164.331 C 206.461 162.935,206.030 162.873,203.191 163.884 M213.534 164.271 C 213.534 165.253,213.713 165.433,215.045 165.791 C 221.105 167.423,227.244 173.124,228.666 178.440 C 229.104 180.078,231.977 181.100,231.945 179.605 C 231.923 178.591,229.721 174.023,228.229 171.896 C 224.264 166.243,213.534 160.676,213.534 164.271 M203.739 174.003 C 201.265 175.587,198.503 178.638,198.498 179.793 C 198.497 179.948,200.273 180.075,202.444 180.075 L 206.391 180.075 206.391 176.504 C 206.391 172.426,206.314 172.354,203.739 174.003 M213.534 176.504 L 213.534 180.075 217.679 180.075 L 221.824 180.075 221.243 178.952 C 220.283 177.095,218.404 175.194,216.383 174.034 C 213.544 172.406,213.534 172.415,213.534 176.504 M135.875 189.342 C 149.240 196.126,179.935 205.263,189.357 205.263 C 189.502 205.263,189.105 204.713,188.474 204.041 C 184.948 200.286,182.444 194.826,181.405 188.628 L 181.169 187.218 156.468 187.237 L 131.767 187.257 135.875 189.342 M188.530 188.440 C 190.323 197.405,198.898 206.391,205.661 206.391 C 207.704 206.391,206.515 204.209,204.103 203.532 C 198.057 201.836,192.426 195.725,190.888 189.192 C 190.305 186.715,188.041 185.993,188.530 188.440 M197.744 187.722 C 197.744 190.189,202.332 195.538,205.349 196.590 L 206.391 196.953 206.391 192.086 L 206.391 187.218 202.068 187.218 C 198.704 187.218,197.744 187.330,197.744 187.722 M213.534 192.105 C 213.534 194.793,213.625 196.992,213.737 196.992 C 215.463 196.992,220.108 192.949,221.294 190.414 C 222.797 187.199,222.818 187.218,217.857 187.218 L 213.534 187.218 213.534 192.105 M229.485 188.252 C 227.802 195.851,222.286 201.888,215.320 203.755 C 213.121 204.344,212.403 207.023,214.568 206.561 C 223.307 204.696,230.850 197.080,232.177 188.782 L 232.427 187.218 231.070 187.218 C 229.896 187.218,229.683 187.357,229.485 188.252 M239.474 187.373 C 239.474 191.955,236.053 199.740,232.136 204.074 L 230.323 206.080 231.985 205.864 C 246.406 203.986,248.367 203.626,259.692 200.782 C 272.075 197.671,294.368 189.640,296.961 187.356 C 297.047 187.280,284.148 187.218,268.296 187.218 C 252.444 187.218,239.474 187.288,239.474 187.373 " stroke="none" fill="#040404" fill-rule="evenodd"></path><path id="path2" d="M200.478 100.000 C 200.478 100.930,200.552 101.311,200.641 100.846 C 200.731 100.381,200.731 99.619,200.641 99.154 C 200.552 98.689,200.478 99.070,200.478 100.000 M194.087 105.639 C 194.087 106.570,194.161 106.950,194.250 106.485 C 194.340 106.020,194.340 105.258,194.250 104.793 C 194.161 104.328,194.087 104.709,194.087 105.639 M219.267 107.412 C 219.836 107.498,220.766 107.498,221.335 107.412 C 221.903 107.326,221.438 107.256,220.301 107.256 C 219.164 107.256,218.698 107.326,219.267 107.412 M210.996 107.793 C 211.772 107.874,213.040 107.874,213.816 107.793 C 214.591 107.712,213.957 107.645,212.406 107.645 C 210.855 107.645,210.221 107.712,210.996 107.793 M203.102 108.164 C 203.670 108.250,204.601 108.250,205.169 108.164 C 205.738 108.078,205.273 108.007,204.135 108.007 C 202.998 108.007,202.533 108.078,203.102 108.164 M193.045 108.647 L 191.917 108.934 192.929 108.978 C 193.485 109.003,194.045 108.853,194.173 108.647 C 194.301 108.440,194.353 108.291,194.289 108.315 C 194.225 108.340,193.665 108.489,193.045 108.647 M222.307 111.278 C 222.307 112.829,222.373 113.463,222.454 112.688 C 222.535 111.913,222.535 110.644,222.454 109.868 C 222.373 109.093,222.307 109.727,222.307 111.278 M187.688 109.282 C 188.050 109.376,188.642 109.376,189.004 109.282 C 189.366 109.187,189.070 109.110,188.346 109.110 C 187.622 109.110,187.326 109.187,187.688 109.282 M213.440 114.175 C 213.905 114.265,214.666 114.265,215.132 114.175 C 215.597 114.085,215.216 114.012,214.286 114.012 C 213.355 114.012,212.975 114.085,213.440 114.175 M204.981 114.555 C 205.550 114.641,206.480 114.641,207.049 114.555 C 207.617 114.469,207.152 114.398,206.015 114.398 C 204.878 114.398,204.413 114.469,204.981 114.555 M198.402 114.927 C 198.867 115.017,199.629 115.017,200.094 114.927 C 200.559 114.837,200.179 114.764,199.248 114.764 C 198.318 114.764,197.937 114.837,198.402 114.927 M194.079 115.297 C 194.441 115.391,195.033 115.391,195.395 115.297 C 195.757 115.202,195.461 115.125,194.737 115.125 C 194.013 115.125,193.717 115.202,194.079 115.297 M189.384 115.679 C 189.852 115.769,190.528 115.766,190.888 115.672 C 191.247 115.578,190.865 115.504,190.038 115.508 C 189.211 115.513,188.916 115.589,189.384 115.679 M185.056 116.049 C 185.418 116.143,186.010 116.143,186.372 116.049 C 186.734 115.954,186.438 115.877,185.714 115.877 C 184.991 115.877,184.695 115.954,185.056 116.049 M54.511 133.952 C 54.511 134.017,55.061 134.567,55.733 135.174 L 56.955 136.278 55.851 135.056 C 54.821 133.917,54.511 133.662,54.511 133.952 M49.788 136.560 L 48.684 137.782 49.906 136.678 C 51.045 135.649,51.301 135.338,51.010 135.338 C 50.945 135.338,50.396 135.888,49.788 136.560 M50.376 139.215 C 50.376 139.280,50.926 139.830,51.598 140.437 L 52.820 141.541 51.715 140.320 C 50.686 139.181,50.376 138.925,50.376 139.215 M63.534 143.797 C 64.235 144.521,64.894 145.113,64.997 145.113 C 65.101 145.113,64.611 144.521,63.910 143.797 C 63.208 143.073,62.550 142.481,62.446 142.481 C 62.343 142.481,62.832 143.073,63.534 143.797 M55.623 144.831 C 56.545 145.813,57.349 146.617,57.409 146.617 C 57.691 146.617,57.393 146.279,55.733 144.721 L 53.947 143.045 55.623 144.831 M209.855 147.264 L 213.131 147.397 213.238 151.048 L 213.346 154.699 214.384 154.745 C 215.308 154.786,215.320 154.773,214.492 154.627 C 213.585 154.468,213.558 154.367,213.453 150.822 L 213.346 147.180 209.962 147.156 L 206.579 147.131 209.855 147.264 M58.647 148.238 C 58.647 148.303,59.196 148.852,59.868 149.460 L 61.090 150.564 59.986 149.342 C 58.957 148.203,58.647 147.947,58.647 148.238 M200.470 154.789 C 201.659 154.864,203.604 154.864,204.793 154.789 C 205.982 154.714,205.009 154.653,202.632 154.653 C 200.254 154.653,199.281 154.714,200.470 154.789 M193.515 155.153 C 193.980 155.242,194.742 155.242,195.207 155.153 C 195.672 155.063,195.291 154.990,194.361 154.990 C 193.430 154.990,193.050 155.063,193.515 155.153 M218.520 155.157 C 219.092 155.243,219.938 155.241,220.400 155.152 C 220.862 155.063,220.395 154.992,219.361 154.995 C 218.327 154.998,217.949 155.071,218.520 155.157 M224.154 155.522 C 224.516 155.617,225.108 155.617,225.470 155.522 C 225.832 155.428,225.536 155.350,224.812 155.350 C 224.088 155.350,223.792 155.428,224.154 155.522 M57.307 157.613 L 56.203 158.835 57.425 157.730 C 58.097 157.123,58.647 156.573,58.647 156.509 C 58.647 156.218,58.336 156.474,57.307 157.613 M190.703 161.928 C 191.606 162.023,192.029 162.226,191.867 162.487 C 191.715 162.734,191.787 162.791,192.047 162.630 C 192.951 162.071,192.423 161.656,190.883 161.717 L 189.286 161.781 190.703 161.928 M186.184 162.289 C 186.546 162.384,187.138 162.384,187.500 162.289 C 187.862 162.195,187.566 162.117,186.842 162.117 C 186.118 162.117,185.822 162.195,186.184 162.289 M229.610 162.672 C 230.077 162.762,230.754 162.758,231.113 162.664 C 231.473 162.570,231.090 162.497,230.263 162.501 C 229.436 162.505,229.142 162.582,229.610 162.672 M213.253 164.098 C 213.257 164.925,213.334 165.219,213.424 164.751 C 213.514 164.284,213.510 163.607,213.416 163.247 C 213.322 162.888,213.249 163.271,213.253 164.098 M224.812 167.787 C 224.812 167.852,225.362 168.401,226.034 169.009 L 227.256 170.113 226.151 168.891 C 225.122 167.752,224.812 167.496,224.812 167.787 M213.324 176.316 L 213.346 180.263 217.576 180.283 L 221.806 180.302 217.683 180.176 L 213.560 180.051 213.431 176.210 L 213.302 172.368 213.324 176.316 M188.440 179.699 C 188.533 180.046,189.086 180.284,189.879 180.316 C 191.057 180.365,191.071 180.354,190.039 180.188 C 189.419 180.089,188.772 179.811,188.600 179.571 C 188.390 179.277,188.338 179.318,188.440 179.699 M228.725 179.784 C 228.786 180.084,229.432 180.263,230.451 180.263 C 231.470 180.263,232.117 180.084,232.177 179.784 C 232.231 179.520,232.188 179.478,232.083 179.690 C 231.978 179.902,231.244 180.075,230.451 180.075 C 229.659 180.075,228.924 179.902,228.819 179.690 C 228.714 179.478,228.672 179.520,228.725 179.784 M50.998 180.169 C 51.094 180.324,65.532 180.451,83.083 180.451 C 100.633 180.451,115.072 180.324,115.167 180.169 C 115.263 180.014,100.825 179.887,83.083 179.887 C 65.340 179.887,50.902 180.014,50.998 180.169 M127.690 180.169 C 127.786 180.324,139.940 180.451,154.699 180.451 C 169.459 180.451,181.613 180.324,181.709 180.169 C 181.805 180.014,169.650 179.887,154.699 179.887 C 139.748 179.887,127.594 180.014,127.690 180.169 M238.968 180.169 C 239.064 180.324,251.979 180.451,267.669 180.451 C 283.359 180.451,296.275 180.324,296.370 180.169 C 296.466 180.014,283.551 179.887,267.669 179.887 C 251.788 179.887,238.872 180.014,238.968 180.169 M200.470 180.353 C 201.659 180.428,203.604 180.428,204.793 180.353 C 205.982 180.278,205.009 180.217,202.632 180.217 C 200.254 180.217,199.281 180.278,200.470 180.353 M328.693 180.357 C 337.135 180.413,350.838 180.413,359.145 180.357 C 367.452 180.301,360.545 180.254,343.797 180.254 C 327.049 180.254,320.252 180.301,328.693 180.357 M213.226 192.011 C 213.188 194.958,213.285 197.369,213.440 197.369 C 213.595 197.370,213.677 195.720,213.622 193.704 C 213.445 187.173,213.295 186.533,213.226 192.011 M201.128 194.173 C 201.829 194.897,202.488 195.489,202.591 195.489 C 202.694 195.489,202.205 194.897,201.504 194.173 C 200.802 193.449,200.144 192.857,200.040 192.857 C 199.937 192.857,200.426 193.449,201.128 194.173 M194.737 197.110 C 194.737 197.175,195.287 197.725,195.959 198.332 L 197.180 199.436 196.076 198.214 C 195.047 197.075,194.737 196.820,194.737 197.110 M225.738 200.846 L 223.872 202.820 225.846 200.954 C 227.680 199.220,227.992 198.872,227.711 198.872 C 227.652 198.872,226.764 199.760,225.738 200.846 M194.721 200.846 C 196.279 202.506,196.617 202.804,196.617 202.522 C 196.617 202.462,195.813 201.658,194.831 200.736 L 193.045 199.060 194.721 200.846 M231.244 204.657 C 230.419 205.508,230.154 206.019,230.443 206.198 C 230.682 206.346,230.979 206.365,231.103 206.241 C 231.227 206.117,231.098 206.015,230.816 206.015 C 230.529 206.015,230.864 205.437,231.579 204.699 C 232.280 203.976,232.770 203.383,232.666 203.383 C 232.563 203.383,231.923 203.956,231.244 204.657 M188.839 204.378 C 189.364 205.001,189.407 205.230,189.027 205.382 C 188.705 205.511,188.762 205.590,189.192 205.609 C 190.089 205.650,190.018 205.146,189.004 204.288 L 188.158 203.571 188.839 204.378 M213.306 204.292 C 212.953 205.210,213.321 206.890,213.910 207.049 C 214.372 207.173,214.380 207.135,213.958 206.839 C 213.624 206.605,213.497 205.998,213.600 205.118 C 213.766 203.700,213.654 203.385,213.306 204.292 M354.300 204.981 L 353.195 206.203 354.417 205.099 C 355.556 204.070,355.812 203.759,355.521 203.759 C 355.457 203.759,354.907 204.309,354.300 204.981 M356.555 212.124 L 355.451 213.346 356.673 212.242 C 357.345 211.634,357.895 211.085,357.895 211.020 C 357.895 210.729,357.585 210.985,356.555 212.124 M202.914 213.423 C 203.379 213.513,204.140 213.513,204.605 213.423 C 205.070 213.334,204.690 213.260,203.759 213.260 C 202.829 213.260,202.448 213.334,202.914 213.423 M220.589 213.430 C 221.265 213.514,222.280 213.512,222.845 213.427 C 223.410 213.341,222.857 213.272,221.617 213.274 C 220.376 213.276,219.914 213.347,220.589 213.430 M213.291 216.729 C 213.290 218.590,213.354 219.399,213.433 218.526 C 213.511 217.654,213.512 216.131,213.435 215.143 C 213.357 214.155,213.292 214.868,213.291 216.729 M357.895 216.283 C 357.895 216.348,358.445 216.898,359.117 217.505 L 360.338 218.609 359.234 217.387 C 358.205 216.248,357.895 215.993,357.895 216.283 M361.654 220.418 C 361.654 220.483,362.204 221.033,362.876 221.640 L 364.098 222.744 362.994 221.523 C 361.964 220.384,361.654 220.128,361.654 220.418 M354.887 222.744 C 355.589 223.468,356.247 224.060,356.351 224.060 C 356.454 224.060,355.965 223.468,355.263 222.744 C 354.562 222.021,353.903 221.429,353.800 221.429 C 353.696 221.429,354.186 222.021,354.887 222.744 M363.158 231.767 C 363.859 232.491,364.518 233.083,364.621 233.083 C 364.725 233.083,364.235 232.491,363.534 231.767 C 362.832 231.043,362.174 230.451,362.071 230.451 C 361.967 230.451,362.456 231.043,363.158 231.767 M366.330 231.673 L 365.226 232.895 366.447 231.791 C 367.119 231.183,367.669 230.633,367.669 230.569 C 367.669 230.278,367.359 230.534,366.330 231.673 M211.748 252.525 C 212.317 252.611,213.247 252.611,213.816 252.525 C 214.384 252.439,213.919 252.368,212.782 252.368 C 211.645 252.368,211.180 252.439,211.748 252.525 M205.169 252.904 C 205.841 252.987,206.941 252.987,207.613 252.904 C 208.285 252.820,207.735 252.752,206.391 252.752 C 205.047 252.752,204.497 252.820,205.169 252.904 M195.395 253.279 C 196.067 253.363,197.166 253.363,197.838 253.279 C 198.510 253.196,197.961 253.128,196.617 253.128 C 195.273 253.128,194.723 253.196,195.395 253.279 M224.147 259.398 C 224.147 260.122,224.225 260.418,224.319 260.056 C 224.414 259.695,224.414 259.102,224.319 258.741 C 224.225 258.379,224.147 258.675,224.147 259.398 M207.613 259.282 C 207.975 259.376,208.567 259.376,208.929 259.282 C 209.290 259.187,208.994 259.110,208.271 259.110 C 207.547 259.110,207.251 259.187,207.613 259.282 M196.711 259.675 C 197.693 259.752,199.300 259.752,200.282 259.675 C 201.264 259.597,200.461 259.534,198.496 259.534 C 196.532 259.534,195.728 259.597,196.711 259.675 M217.764 261.842 C 217.768 262.669,217.845 262.963,217.935 262.496 C 218.025 262.028,218.022 261.351,217.927 260.992 C 217.833 260.632,217.760 261.015,217.764 261.842 M224.538 267.293 C 224.538 268.224,224.612 268.604,224.701 268.139 C 224.791 267.674,224.791 266.913,224.701 266.447 C 224.612 265.982,224.538 266.363,224.538 267.293 " stroke="none" fill="#848484" fill-rule="evenodd"></path><path id="path3" d="M193.696 97.368 C 193.696 98.092,193.774 98.388,193.868 98.026 C 193.963 97.664,193.963 97.072,193.868 96.711 C 193.774 96.349,193.696 96.645,193.696 97.368 M216.452 114.176 C 216.919 114.266,217.596 114.262,217.956 114.168 C 218.315 114.074,217.932 114.000,217.105 114.005 C 216.278 114.009,215.984 114.086,216.452 114.176 M202.350 252.891 C 202.711 252.985,203.304 252.985,203.665 252.891 C 204.027 252.796,203.731 252.719,203.008 252.719 C 202.284 252.719,201.988 252.796,202.350 252.891 M217.764 264.474 C 217.768 265.301,217.845 265.595,217.935 265.127 C 218.025 264.660,218.022 263.983,217.927 263.623 C 217.833 263.264,217.760 263.647,217.764 264.474 " stroke="none" fill="#747474" fill-rule="evenodd"></path><path id="path4" d="M195.019 95.385 C 195.691 95.468,196.790 95.468,197.462 95.385 C 198.134 95.301,197.585 95.233,196.241 95.233 C 194.897 95.233,194.347 95.301,195.019 95.385 M200.471 97.180 C 200.475 98.008,200.552 98.302,200.642 97.834 C 200.732 97.366,200.728 96.690,200.634 96.330 C 200.540 95.971,200.467 96.353,200.471 97.180 M193.704 99.812 C 193.708 100.639,193.785 100.933,193.875 100.466 C 193.965 99.998,193.961 99.321,193.867 98.962 C 193.773 98.602,193.700 98.985,193.704 99.812 M215.889 107.413 C 216.460 107.499,217.306 107.497,217.768 107.407 C 218.231 107.318,217.763 107.248,216.729 107.250 C 215.695 107.253,215.317 107.326,215.889 107.413 M206.109 107.778 C 206.471 107.873,207.063 107.873,207.425 107.778 C 207.787 107.683,207.491 107.606,206.767 107.606 C 206.043 107.606,205.747 107.683,206.109 107.778 M189.192 108.906 C 189.554 109.000,190.146 109.000,190.508 108.906 C 190.869 108.811,190.573 108.734,189.850 108.734 C 189.126 108.734,188.830 108.811,189.192 108.906 M184.680 109.282 C 185.042 109.376,185.634 109.376,185.996 109.282 C 186.358 109.187,186.062 109.110,185.338 109.110 C 184.615 109.110,184.319 109.187,184.680 109.282 M219.267 114.179 C 219.836 114.265,220.766 114.265,221.335 114.179 C 221.903 114.093,221.438 114.022,220.301 114.022 C 219.164 114.022,218.698 114.093,219.267 114.179 M209.305 114.558 C 209.977 114.641,211.076 114.641,211.748 114.558 C 212.420 114.474,211.870 114.406,210.526 114.406 C 209.182 114.406,208.633 114.474,209.305 114.558 M203.102 114.931 C 203.670 115.017,204.601 115.017,205.169 114.931 C 205.738 114.845,205.273 114.774,204.135 114.774 C 202.998 114.774,202.533 114.845,203.102 114.931 M197.279 115.303 C 197.746 115.393,198.423 115.390,198.783 115.296 C 199.142 115.202,198.759 115.128,197.932 115.132 C 197.105 115.137,196.811 115.214,197.279 115.303 M62.406 142.293 C 63.107 143.017,63.766 143.609,63.869 143.609 C 63.973 143.609,63.483 143.017,62.782 142.293 C 62.081 141.570,61.422 140.977,61.319 140.977 C 61.215 140.977,61.705 141.570,62.406 142.293 M57.143 146.805 C 57.844 147.528,58.503 148.120,58.606 148.120 C 58.710 148.120,58.220 147.528,57.519 146.805 C 56.817 146.081,56.159 145.489,56.056 145.489 C 55.952 145.489,56.441 146.081,57.143 146.805 M66.819 146.992 C 67.521 147.752,67.739 147.818,68.135 147.393 C 68.518 146.980,68.514 146.936,68.115 147.162 C 67.832 147.323,67.271 147.152,66.800 146.761 C 65.996 146.096,65.996 146.101,66.819 146.992 M206.528 150.940 C 206.529 153.008,206.592 153.805,206.669 152.713 C 206.745 151.621,206.744 149.929,206.667 148.954 C 206.590 147.978,206.527 148.872,206.528 150.940 M61.456 151.422 L 62.169 152.281 59.942 154.618 L 57.715 156.955 60.147 154.609 L 62.580 152.262 61.661 151.413 L 60.742 150.564 61.456 151.422 M195.588 154.781 C 196.159 154.867,197.005 154.865,197.468 154.776 C 197.930 154.687,197.462 154.616,196.429 154.619 C 195.395 154.622,195.016 154.695,195.588 154.781 M216.454 154.784 C 217.130 154.867,218.145 154.866,218.710 154.780 C 219.275 154.694,218.722 154.626,217.481 154.628 C 216.241 154.630,215.778 154.700,216.454 154.784 M189.944 155.146 C 190.305 155.241,190.898 155.241,191.259 155.146 C 191.621 155.052,191.325 154.974,190.602 154.974 C 189.878 154.974,189.582 155.052,189.944 155.146 M222.650 155.146 C 223.012 155.241,223.604 155.241,223.966 155.146 C 224.328 155.052,224.032 154.974,223.308 154.974 C 222.585 154.974,222.289 155.052,222.650 155.146 M226.410 155.522 C 226.772 155.617,227.364 155.617,227.726 155.522 C 228.087 155.428,227.791 155.350,227.068 155.350 C 226.344 155.350,226.048 155.428,226.410 155.522 M65.401 158.929 L 63.346 161.090 65.508 159.035 C 66.696 157.905,67.669 156.932,67.669 156.874 C 67.669 156.595,67.310 156.920,65.401 158.929 M206.361 164.379 C 206.249 165.188,206.307 165.648,206.496 165.459 C 206.677 165.278,206.765 164.643,206.691 164.050 C 206.567 163.056,206.541 163.082,206.361 164.379 M206.306 175.281 C 206.483 179.963,206.644 180.418,206.707 176.410 C 206.740 174.290,206.640 172.556,206.485 172.556 C 206.330 172.555,206.249 173.782,206.306 175.281 M60.968 187.124 C 71.032 187.180,87.611 187.180,97.810 187.124 C 108.009 187.068,99.774 187.023,79.511 187.023 C 59.248 187.023,50.903 187.068,60.968 187.124 M131.274 187.038 C 131.384 187.149,142.651 187.232,156.310 187.223 C 175.999 187.211,181.179 187.306,181.305 187.683 C 181.399 187.965,181.447 187.929,181.422 187.594 C 181.386 187.100,178.271 187.018,156.227 186.933 C 142.392 186.880,131.163 186.927,131.274 187.038 M202.056 187.117 L 206.369 187.242 206.490 192.023 L 206.612 196.805 206.595 191.917 L 206.579 187.030 202.161 187.011 L 197.743 186.993 202.056 187.117 M217.655 187.117 C 220.477 187.200,222.076 187.402,222.289 187.701 C 222.521 188.028,222.570 187.998,222.460 187.594 C 222.335 187.134,221.479 187.026,217.826 187.010 L 213.346 186.990 217.655 187.117 M229.574 187.093 C 229.436 187.231,229.326 187.527,229.329 187.751 C 229.333 188.015,229.433 188.004,229.614 187.719 C 229.768 187.477,230.484 187.208,231.206 187.121 L 232.519 186.962 231.172 186.902 C 230.431 186.869,229.712 186.955,229.574 187.093 M239.227 187.422 C 239.105 187.741,239.110 188.108,239.239 188.237 C 239.368 188.366,239.474 188.187,239.474 187.840 C 239.474 187.255,241.570 187.210,268.475 187.223 C 284.425 187.230,297.564 187.148,297.673 187.039 C 297.781 186.931,284.725 186.842,268.660 186.842 C 242.680 186.842,239.425 186.906,239.227 187.422 M325.686 187.124 C 333.093 187.181,345.104 187.181,352.377 187.124 C 359.651 187.067,353.590 187.020,338.910 187.020 C 324.229 187.020,318.278 187.067,325.686 187.124 M206.361 205.357 C 206.249 206.165,206.307 206.626,206.496 206.436 C 206.677 206.255,206.765 205.621,206.691 205.027 C 206.567 204.033,206.541 204.059,206.361 205.357 M350.540 208.741 L 349.436 209.962 350.658 208.858 C 351.797 207.829,352.053 207.519,351.762 207.519 C 351.697 207.519,351.148 208.069,350.540 208.741 M194.831 213.041 C 195.193 213.136,195.785 213.136,196.147 213.041 C 196.508 212.947,196.212 212.869,195.489 212.869 C 194.765 212.869,194.469 212.947,194.831 213.041 M229.793 213.041 C 230.155 213.136,230.747 213.136,231.109 213.041 C 231.471 212.947,231.175 212.869,230.451 212.869 C 229.727 212.869,229.431 212.947,229.793 213.041 M199.530 213.423 C 199.995 213.513,200.757 213.513,201.222 213.423 C 201.687 213.334,201.306 213.260,200.376 213.260 C 199.445 213.260,199.065 213.334,199.530 213.423 M224.718 213.423 C 225.183 213.513,225.945 213.513,226.410 213.423 C 226.875 213.334,226.494 213.260,225.564 213.260 C 224.633 213.260,224.253 213.334,224.718 213.423 M205.248 213.745 L 206.361 213.955 206.470 217.034 L 206.579 220.113 209.869 220.136 L 213.160 220.159 209.978 220.028 L 206.797 219.896 206.688 216.809 L 206.579 213.722 205.357 213.628 C 204.180 213.537,204.176 213.542,205.248 213.745 M216.259 213.810 C 217.242 213.888,218.849 213.888,219.831 213.810 C 220.813 213.733,220.009 213.669,218.045 213.669 C 216.081 213.669,215.277 213.733,216.259 213.810 M356.015 214.027 C 356.015 214.092,356.565 214.642,357.237 215.249 L 358.459 216.353 357.354 215.132 C 356.325 213.993,356.015 213.737,356.015 214.027 M361.654 220.113 C 362.356 220.836,363.014 221.429,363.117 221.429 C 363.221 221.429,362.731 220.836,362.030 220.113 C 361.329 219.389,360.670 218.797,360.567 218.797 C 360.463 218.797,360.953 219.389,361.654 220.113 M355.263 223.426 C 355.263 223.491,355.813 224.040,356.485 224.648 L 357.707 225.752 356.603 224.530 C 355.573 223.391,355.263 223.135,355.263 223.426 M359.774 228.313 C 359.774 228.378,360.324 228.928,360.996 229.535 L 362.218 230.639 361.114 229.417 C 360.085 228.278,359.774 228.023,359.774 228.313 M209.117 252.515 C 209.478 252.609,210.070 252.609,210.432 252.515 C 210.794 252.420,210.498 252.343,209.774 252.343 C 209.051 252.343,208.755 252.420,209.117 252.515 M199.347 252.901 C 199.919 252.988,200.765 252.985,201.227 252.896 C 201.689 252.807,201.222 252.736,200.188 252.739 C 199.154 252.742,198.776 252.815,199.347 252.901 M194.105 255.263 C 194.105 256.607,194.174 257.157,194.257 256.485 C 194.340 255.813,194.340 254.713,194.257 254.041 C 194.174 253.369,194.105 253.919,194.105 255.263 M211.748 259.292 C 212.317 259.378,213.247 259.378,213.816 259.292 C 214.384 259.206,213.919 259.135,212.782 259.135 C 211.645 259.135,211.180 259.206,211.748 259.292 M203.102 259.672 C 203.877 259.753,205.146 259.753,205.921 259.672 C 206.696 259.591,206.062 259.525,204.511 259.525 C 202.961 259.525,202.326 259.591,203.102 259.672 M195.401 260.047 C 196.077 260.131,197.092 260.129,197.657 260.043 C 198.222 259.957,197.669 259.889,196.429 259.891 C 195.188 259.893,194.726 259.963,195.401 260.047 M224.531 264.098 C 224.535 264.925,224.612 265.219,224.702 264.751 C 224.792 264.284,224.788 263.607,224.694 263.247 C 224.600 262.888,224.527 263.271,224.531 264.098 M217.793 268.233 C 217.794 269.680,217.862 270.226,217.944 269.447 C 218.025 268.667,218.024 267.482,217.941 266.815 C 217.857 266.148,217.791 266.786,217.793 268.233 M220.959 270.942 C 221.424 271.032,222.185 271.032,222.650 270.942 C 223.116 270.852,222.735 270.779,221.805 270.779 C 220.874 270.779,220.493 270.852,220.959 270.942 " stroke="none" fill="#646464" fill-rule="evenodd"></path></g></svg>