<svg id="svg" version="1.1" xmlns="http://www.w3.org/2000/svg" xmlns:xlink="http://www.w3.org/1999/xlink" width="70" height="70" viewBox="0, 0, 400,375.69721115537845"><g id="svgg"><path id="path0" d="M194.773 95.762 L 193.869 95.932 194.110 102.303 C 194.295 107.207,194.243 108.705,193.886 108.809 C 193.630 108.882,190.038 109.225,185.902 109.569 C 167.637 111.092,152.630 113.494,133.745 117.920 C 130.490 118.682,127.748 119.227,127.651 119.130 C 127.554 119.033,126.629 116.021,125.594 112.436 C 123.359 104.691,123.856 105.337,120.758 106.156 C 117.251 107.084,117.323 106.682,119.336 114.066 C 120.322 117.681,121.066 120.824,120.991 121.050 C 120.915 121.277,117.642 122.533,113.716 123.841 C 97.003 129.413,79.810 138.238,69.649 146.461 L 67.682 148.054 65.129 145.361 C 63.724 143.881,61.743 141.739,60.726 140.602 C 59.710 139.464,57.708 137.288,56.279 135.765 L 53.680 132.997 51.461 135.193 C 50.241 136.400,49.286 137.502,49.339 137.640 C 49.392 137.779,51.911 140.574,54.935 143.852 C 57.960 147.130,60.889 150.357,61.445 151.023 L 62.455 152.234 58.754 156.309 C 49.448 166.556,44.273 175.971,43.057 184.868 L 42.787 186.842 79.634 186.842 L 116.482 186.842 120.177 188.977 C 130.576 194.984,147.656 202.236,159.398 205.629 C 174.233 209.916,187.127 212.275,199.436 212.953 C 201.711 213.079,204.290 213.271,205.169 213.381 L 206.767 213.580 206.767 216.752 L 206.767 219.925 209.962 219.925 L 213.158 219.925 213.158 216.794 L 213.158 213.664 221.711 213.218 C 252.694 211.601,286.093 202.197,309.420 188.521 L 312.284 186.842 339.062 186.842 L 365.840 186.842 365.579 187.688 C 364.869 189.992,362.988 193.475,360.250 197.556 C 346.978 217.338,319.159 233.530,283.076 242.476 C 262.167 247.659,246.673 249.963,217.293 252.255 C 213.161 252.578,197.658 253.359,195.004 253.379 C 194.403 253.383,194.342 253.714,194.440 256.434 L 194.549 259.484 199.624 259.426 C 202.415 259.395,207.562 259.207,211.060 259.009 C 214.558 258.811,217.519 258.747,217.639 258.867 C 217.759 258.987,217.918 261.693,217.991 264.881 L 218.125 270.677 221.504 270.677 L 224.883 270.677 224.672 268.891 C 224.557 267.909,224.414 265.161,224.355 262.785 L 224.248 258.465 225.752 258.198 C 226.579 258.051,230.216 257.660,233.835 257.329 C 251.972 255.670,276.956 251.251,288.902 247.588 C 291.231 246.874,290.903 246.362,293.030 254.041 C 295.046 261.322,294.655 260.919,298.568 259.753 C 300.653 259.132,301.127 258.854,300.972 258.343 C 299.898 254.802,297.368 245.789,297.368 245.502 C 297.368 245.300,298.341 244.855,299.530 244.513 C 302.151 243.761,312.686 239.791,317.857 237.607 C 327.033 233.732,339.032 226.780,346.513 221.005 C 348.658 219.349,350.546 218.048,350.709 218.114 C 350.872 218.179,352.329 219.671,353.947 221.429 C 355.566 223.186,358.653 226.525,360.807 228.848 L 364.725 233.072 366.949 231.114 C 369.749 228.649,369.857 229.106,365.320 224.227 C 353.922 211.971,354.975 213.711,357.473 211.253 C 365.365 203.483,372.533 190.892,373.601 182.918 L 373.932 180.451 343.910 180.451 L 313.888 180.451 311.707 179.350 C 293.823 170.322,259.977 160.098,237.674 156.986 C 231.655 156.147,228.339 155.824,216.917 154.967 L 213.346 154.699 213.238 151.034 L 213.131 147.368 209.949 147.368 L 206.767 147.368 206.767 151.069 L 206.767 154.769 199.154 155.010 C 168.756 155.973,137.505 165.006,117.018 178.749 L 114.482 180.451 82.827 180.451 C 65.164 180.451,51.082 180.306,50.969 180.122 C 50.857 179.942,51.774 177.785,53.005 175.329 C 61.583 158.227,82.789 142.058,109.616 132.164 C 113.321 130.797,116.710 129.529,117.145 129.346 C 134.352 122.112,188.505 113.910,219.062 113.910 L 222.180 113.910 222.180 110.660 L 222.180 107.411 215.883 107.659 C 212.420 107.796,207.621 108.012,205.219 108.139 L 200.852 108.371 200.577 101.930 L 200.302 95.489 197.989 95.540 C 196.717 95.568,195.270 95.668,194.773 95.762 M192.481 161.879 C 192.481 162.002,191.628 162.870,190.585 163.808 C 186.904 167.118,184.065 171.921,182.526 177.444 L 181.741 180.263 154.895 180.360 C 140.130 180.413,127.910 180.316,127.738 180.144 C 127.439 179.846,136.309 175.386,140.609 173.672 C 154.256 168.235,165.113 165.342,180.639 163.006 C 189.177 161.722,192.481 161.407,192.481 161.879 M235.649 163.179 C 251.333 165.538,262.504 168.141,277.820 173.003 C 284.359 175.079,296.649 179.818,296.327 180.139 C 296.153 180.313,283.182 180.413,267.503 180.360 L 238.995 180.263 238.485 178.270 C 237.157 173.077,234.413 168.177,230.710 164.380 C 228.411 162.022,228.238 162.064,235.649 163.179 M206.767 164.256 C 206.767 165.616,206.673 165.749,205.545 165.984 C 199.450 167.250,194.379 172.070,191.411 179.417 C 191.088 180.218,190.743 180.451,189.880 180.451 C 188.374 180.451,188.318 180.240,189.130 177.608 C 191.048 171.394,196.547 166.002,203.482 163.537 C 206.487 162.469,206.767 162.530,206.767 164.256 M217.056 163.517 C 224.705 166.148,231.437 173.304,232.062 179.467 C 232.264 181.456,228.982 180.517,228.257 178.379 C 226.318 172.650,221.799 168.398,215.315 166.201 C 213.464 165.574,213.339 165.452,213.229 164.158 C 213.087 162.484,213.738 162.375,217.056 163.517 M206.767 176.504 L 206.767 180.451 202.654 180.451 C 200.392 180.451,198.440 180.288,198.317 180.089 C 197.701 179.093,201.814 174.395,204.285 173.273 C 206.784 172.138,206.767 172.117,206.767 176.504 M216.108 173.467 C 218.597 174.728,221.805 178.446,221.805 180.069 C 221.805 180.343,220.424 180.441,217.575 180.369 L 213.346 180.263 213.239 176.410 C 213.116 171.989,213.141 171.964,216.108 173.467 M181.944 189.558 C 182.882 194.806,185.182 199.860,188.204 203.315 C 189.158 204.406,189.859 205.379,189.761 205.477 C 188.968 206.270,168.502 201.769,158.716 198.649 C 148.831 195.497,130.827 188.088,130.827 187.172 C 130.827 186.986,141.848 186.842,156.143 186.842 L 181.459 186.842 181.944 189.558 M191.307 189.165 C 192.620 195.524,197.675 201.079,204.135 203.263 C 206.507 204.065,206.582 204.131,206.699 205.481 L 206.819 206.873 205.317 206.671 C 198.265 205.726,190.664 198.190,188.552 190.053 C 187.736 186.912,187.755 186.842,189.398 186.842 L 190.827 186.842 191.307 189.165 M206.767 192.110 L 206.767 197.379 205.357 196.793 C 201.369 195.137,198.563 191.928,197.541 187.855 L 197.287 186.842 202.027 186.842 L 206.767 186.842 206.767 192.110 M222.629 187.782 C 222.085 191.326,217.742 196.051,214.004 197.167 L 213.158 197.419 213.158 192.119 L 213.158 186.820 217.951 186.925 C 222.503 187.025,222.739 187.068,222.629 187.782 M232.707 187.200 C 232.707 194.993,224.004 204.822,215.414 206.730 C 211.809 207.530,212.138 204.496,215.789 203.266 C 223.037 200.826,227.532 195.639,229.125 187.876 C 229.339 186.836,232.707 186.200,232.707 187.200 M297.876 187.236 C 296.217 188.895,275.238 196.807,263.534 200.188 C 255.329 202.558,231.490 206.829,230.344 206.134 C 230.182 206.035,230.954 204.978,232.060 203.784 C 235.319 200.264,238.318 193.777,238.922 188.943 L 239.184 186.842 268.728 186.842 C 289.338 186.842,298.151 186.961,297.876 187.236 " stroke="none" fill="#060606" fill-rule="evenodd"></path><path id="path1" d="M0.000 187.970 L 0.000 375.940 200.000 375.940 L 400.000 375.940 400.000 187.970 L 400.000 0.000 200.000 0.000 L 0.000 0.000 0.000 187.970 M200.524 95.707 C 200.649 96.035,200.754 98.530,200.757 101.253 C 200.765 108.485,200.469 108.036,205.037 107.762 C 207.126 107.637,211.909 107.424,215.666 107.288 L 222.498 107.041 222.621 110.308 C 222.772 114.300,222.785 114.286,218.816 114.286 C 185.499 114.289,143.133 120.968,113.915 130.824 C 84.973 140.587,59.719 159.628,52.258 177.312 L 51.172 179.887 82.784 179.983 L 114.397 180.079 118.782 177.296 C 139.444 164.180,170.234 155.431,198.577 154.623 L 206.365 154.400 206.472 150.790 L 206.579 147.180 210.056 147.072 L 213.534 146.964 213.534 150.683 L 213.534 154.402 218.703 154.668 C 245.646 156.055,278.310 164.296,306.939 176.930 L 314.067 180.075 344.112 180.075 L 374.157 180.075 373.895 182.393 C 373.019 190.136,367.208 201.063,359.437 209.581 C 357.553 211.646,356.055 213.460,356.107 213.613 C 356.189 213.852,359.835 217.868,367.934 226.640 L 369.891 228.759 367.370 231.069 C 365.984 232.339,364.672 233.269,364.454 233.136 C 364.237 233.003,361.258 229.848,357.836 226.125 C 349.785 217.367,350.760 218.032,348.597 219.828 C 338.107 228.537,320.779 237.605,303.432 243.462 C 300.461 244.466,297.965 245.459,297.885 245.670 C 297.805 245.880,298.561 248.971,299.564 252.539 C 301.639 259.912,301.776 259.342,297.667 260.439 L 294.771 261.212 294.179 259.083 C 292.888 254.442,290.919 247.936,290.755 247.772 C 290.660 247.677,287.668 248.303,284.107 249.162 C 269.224 252.755,260.340 254.442,248.120 255.993 C 240.574 256.951,227.678 258.271,225.860 258.271 L 224.441 258.271 224.684 264.442 L 224.928 270.613 223.272 270.859 C 222.362 270.995,220.771 271.051,219.737 270.985 L 217.857 270.865 217.624 265.226 C 217.495 262.124,217.368 259.445,217.342 259.272 C 217.315 259.100,216.067 259.060,214.568 259.185 C 206.124 259.885,194.611 260.179,194.308 259.702 C 193.888 259.039,193.897 253.008,194.319 253.008 C 216.450 253.008,253.445 248.942,275.188 244.120 C 318.922 234.421,351.095 215.384,363.142 192.076 C 364.391 189.659,365.414 187.577,365.414 187.450 C 365.414 187.322,353.493 187.218,338.923 187.218 L 312.433 187.218 308.572 189.326 C 281.590 204.061,245.008 213.861,216.823 213.905 L 213.534 213.910 213.534 217.119 L 213.534 220.329 210.056 220.221 L 206.579 220.113 206.470 217.046 L 206.362 213.980 204.215 213.770 C 203.034 213.655,200.545 213.459,198.684 213.334 C 174.014 211.685,146.030 203.318,122.556 190.570 L 116.729 187.406 79.699 187.218 L 42.669 187.030 42.772 184.802 C 43.115 177.405,49.918 165.214,59.220 155.326 L 62.095 152.269 61.405 151.402 C 61.025 150.925,58.092 147.696,54.887 144.225 C 48.179 136.961,48.442 137.610,51.164 135.056 C 53.566 132.803,54.137 132.673,55.263 134.117 C 57.670 137.200,67.479 147.377,67.893 147.219 C 68.156 147.118,70.032 145.805,72.062 144.303 C 83.478 135.850,103.992 125.975,119.474 121.481 C 120.719 121.119,121.044 120.865,120.891 120.374 C 120.782 120.024,119.994 117.368,119.142 114.474 C 118.289 111.579,117.452 108.748,117.282 108.182 C 117.112 107.616,117.087 107.084,117.227 107.000 C 117.710 106.710,122.827 105.263,123.370 105.263 C 123.758 105.263,124.438 107.190,125.726 111.936 C 126.721 115.606,127.643 118.728,127.774 118.874 C 127.904 119.020,130.294 118.542,133.085 117.811 C 147.185 114.120,173.725 109.851,188.910 108.830 C 190.771 108.705,192.698 108.519,193.192 108.416 L 194.091 108.230 193.824 102.053 C 193.678 98.656,193.664 95.704,193.794 95.494 C 194.209 94.822,200.257 95.013,200.524 95.707 M188.910 162.274 C 188.289 162.347,186.175 162.590,184.211 162.816 C 166.130 164.891,146.478 170.641,131.608 178.205 L 128.008 180.037 154.762 180.056 L 181.517 180.075 181.913 178.229 C 182.919 173.537,185.628 168.594,189.365 164.633 C 191.987 161.853,191.999 161.914,188.910 162.274 M231.412 164.717 C 235.021 168.550,237.395 172.797,238.539 177.464 L 239.179 180.075 267.616 180.062 L 296.053 180.048 293.550 178.965 C 278.800 172.579,249.545 165.001,231.770 162.963 L 229.518 162.705 231.412 164.717 M203.176 163.889 C 196.484 166.272,190.929 172.130,189.163 178.665 C 188.792 180.038,188.809 180.075,189.786 180.072 C 190.682 180.069,190.948 179.717,192.278 176.782 C 194.693 171.452,198.730 167.830,204.135 166.147 C 206.009 165.564,206.214 165.393,206.321 164.331 C 206.461 162.933,206.030 162.873,203.176 163.889 M213.534 164.239 C 213.534 165.246,213.713 165.377,216.180 166.170 C 221.928 168.018,227.633 173.815,229.034 179.229 C 229.211 179.913,229.517 180.075,230.629 180.075 C 232.194 180.075,232.194 180.142,230.623 176.230 C 228.363 170.601,223.398 165.946,217.486 163.912 C 214.338 162.828,213.534 162.895,213.534 164.239 M203.739 174.003 C 201.265 175.587,198.503 178.638,198.498 179.793 C 198.497 179.948,200.273 180.075,202.444 180.075 L 206.391 180.075 206.391 176.504 C 206.391 172.426,206.314 172.354,203.739 174.003 M213.534 176.504 L 213.534 180.075 217.679 180.075 L 221.824 180.075 221.243 178.952 C 220.283 177.095,218.404 175.194,216.383 174.034 C 213.544 172.406,213.534 172.415,213.534 176.504 M135.526 189.173 C 148.981 196.030,179.870 205.263,189.357 205.263 C 189.502 205.263,189.105 204.713,188.474 204.041 C 184.948 200.286,182.444 194.826,181.405 188.628 L 181.169 187.218 156.468 187.237 L 131.767 187.256 135.526 189.173 M188.346 187.508 C 188.346 195.006,198.748 206.299,205.733 206.383 C 207.719 206.407,206.452 204.191,204.103 203.532 C 198.040 201.831,191.728 194.869,190.761 188.816 C 190.529 187.367,188.346 186.185,188.346 187.508 M197.744 187.722 C 197.744 190.196,201.898 195.067,205.188 196.450 L 206.391 196.956 206.391 192.087 L 206.391 187.218 202.068 187.218 C 198.704 187.218,197.744 187.330,197.744 187.722 M213.534 192.105 C 213.534 194.793,213.625 196.992,213.737 196.992 C 215.463 196.992,220.108 192.949,221.294 190.414 C 222.797 187.199,222.818 187.218,217.857 187.218 L 213.534 187.218 213.534 192.105 M229.485 188.252 C 227.783 195.940,222.402 201.826,215.320 203.748 C 213.120 204.345,212.405 207.022,214.568 206.561 C 223.307 204.696,230.850 197.080,232.177 188.782 L 232.427 187.218 231.070 187.218 C 229.896 187.218,229.683 187.357,229.485 188.252 M239.474 187.373 C 239.474 191.962,235.895 200.085,232.074 204.170 L 230.349 206.015 232.186 205.799 C 253.931 203.244,275.358 197.430,292.402 189.461 L 297.180 187.227 268.327 187.222 C 252.458 187.220,239.474 187.288,239.474 187.373 " stroke="none" fill="#fbfbfb" fill-rule="evenodd"></path><path id="path2" d="M200.478 100.000 C 200.478 100.930,200.552 101.311,200.641 100.846 C 200.731 100.381,200.731 99.619,200.641 99.154 C 200.552 98.689,200.478 99.070,200.478 100.000 M194.080 105.827 C 194.084 106.654,194.161 106.948,194.251 106.481 C 194.341 106.013,194.337 105.336,194.243 104.977 C 194.149 104.617,194.076 105.000,194.080 105.827 M219.267 107.412 C 219.836 107.498,220.766 107.498,221.335 107.412 C 221.903 107.326,221.438 107.256,220.301 107.256 C 219.164 107.256,218.698 107.326,219.267 107.412 M210.996 107.793 C 211.772 107.874,213.040 107.874,213.816 107.793 C 214.591 107.712,213.957 107.645,212.406 107.645 C 210.855 107.645,210.221 107.712,210.996 107.793 M203.102 108.164 C 203.670 108.250,204.601 108.250,205.169 108.164 C 205.738 108.078,205.273 108.007,204.135 108.007 C 202.998 108.007,202.533 108.078,203.102 108.164 M193.045 108.647 L 191.917 108.934 192.929 108.978 C 193.485 109.003,194.045 108.853,194.173 108.647 C 194.301 108.440,194.353 108.291,194.289 108.315 C 194.225 108.340,193.665 108.489,193.045 108.647 M222.307 111.278 C 222.307 112.829,222.373 113.463,222.454 112.688 C 222.535 111.913,222.535 110.644,222.454 109.868 C 222.373 109.093,222.307 109.727,222.307 111.278 M187.688 109.282 C 188.050 109.376,188.642 109.376,189.004 109.282 C 189.366 109.187,189.070 109.110,188.346 109.110 C 187.622 109.110,187.326 109.187,187.688 109.282 M214.004 114.184 C 214.779 114.265,216.048 114.265,216.823 114.184 C 217.599 114.103,216.964 114.036,215.414 114.036 C 213.863 114.036,213.228 114.103,214.004 114.184 M205.362 114.555 C 205.934 114.642,206.780 114.640,207.242 114.550 C 207.704 114.461,207.237 114.390,206.203 114.393 C 205.169 114.396,204.791 114.469,205.362 114.555 M198.783 114.928 C 199.250 115.017,199.927 115.014,200.286 114.920 C 200.646 114.826,200.263 114.752,199.436 114.756 C 198.609 114.761,198.315 114.838,198.783 114.928 M194.271 115.303 C 194.739 115.393,195.416 115.390,195.775 115.296 C 196.134 115.202,195.752 115.128,194.925 115.132 C 194.098 115.137,193.804 115.214,194.271 115.303 M189.384 115.679 C 189.852 115.769,190.528 115.766,190.888 115.672 C 191.247 115.578,190.865 115.504,190.038 115.508 C 189.211 115.513,188.916 115.589,189.384 115.679 M185.056 116.049 C 185.418 116.143,186.010 116.143,186.372 116.049 C 186.734 115.954,186.438 115.877,185.714 115.877 C 184.991 115.877,184.695 115.954,185.056 116.049 M54.511 133.952 C 54.511 134.017,55.061 134.567,55.733 135.174 L 56.955 136.278 55.851 135.056 C 54.821 133.917,54.511 133.662,54.511 133.952 M49.788 136.560 L 48.684 137.782 49.906 136.678 C 51.045 135.649,51.301 135.338,51.010 135.338 C 50.945 135.338,50.396 135.888,49.788 136.560 M50.376 139.215 C 50.376 139.280,50.926 139.830,51.598 140.437 L 52.820 141.541 51.715 140.320 C 50.686 139.181,50.376 138.925,50.376 139.215 M63.894 144.079 C 65.452 145.739,65.789 146.037,65.789 145.755 C 65.789 145.695,64.986 144.891,64.004 143.969 L 62.218 142.293 63.894 144.079 M55.623 144.831 C 56.545 145.813,57.349 146.617,57.409 146.617 C 57.691 146.617,57.393 146.279,55.733 144.721 L 53.947 143.045 55.623 144.831 M209.855 147.264 L 213.131 147.397 213.238 151.048 L 213.346 154.699 214.384 154.745 C 215.308 154.786,215.320 154.773,214.492 154.627 C 213.585 154.468,213.558 154.367,213.453 150.822 L 213.346 147.180 209.962 147.156 L 206.579 147.131 209.855 147.264 M58.647 148.238 C 58.647 148.303,59.196 148.852,59.868 149.460 L 61.090 150.564 59.986 149.342 C 58.957 148.203,58.647 147.947,58.647 148.238 M200.470 154.789 C 201.659 154.864,203.604 154.864,204.793 154.789 C 205.982 154.714,205.009 154.653,202.632 154.653 C 200.254 154.653,199.281 154.714,200.470 154.789 M193.515 155.153 C 193.980 155.242,194.742 155.242,195.207 155.153 C 195.672 155.063,195.291 154.990,194.361 154.990 C 193.430 154.990,193.050 155.063,193.515 155.153 M218.703 155.153 C 219.168 155.242,219.930 155.242,220.395 155.153 C 220.860 155.063,220.479 154.990,219.549 154.990 C 218.618 154.990,218.238 155.063,218.703 155.153 M224.154 155.522 C 224.516 155.617,225.108 155.617,225.470 155.522 C 225.832 155.428,225.536 155.350,224.812 155.350 C 224.088 155.350,223.792 155.428,224.154 155.522 M57.307 157.613 L 56.203 158.835 57.425 157.730 C 58.097 157.123,58.647 156.573,58.647 156.509 C 58.647 156.218,58.336 156.474,57.307 157.613 M190.703 161.928 C 191.606 162.023,192.029 162.226,191.867 162.487 C 191.715 162.734,191.787 162.791,192.047 162.630 C 192.951 162.071,192.423 161.656,190.883 161.717 L 189.286 161.781 190.703 161.928 M186.184 162.289 C 186.546 162.384,187.138 162.384,187.500 162.289 C 187.862 162.195,187.566 162.117,186.842 162.117 C 186.118 162.117,185.822 162.195,186.184 162.289 M229.610 162.672 C 230.077 162.762,230.754 162.758,231.113 162.664 C 231.473 162.570,231.090 162.497,230.263 162.501 C 229.436 162.505,229.142 162.582,229.610 162.672 M213.253 164.098 C 213.257 164.925,213.334 165.219,213.424 164.751 C 213.514 164.284,213.510 163.607,213.416 163.247 C 213.322 162.888,213.249 163.271,213.253 164.098 M224.812 167.787 C 224.812 167.852,225.362 168.401,226.034 169.009 L 227.256 170.113 226.151 168.891 C 225.122 167.752,224.812 167.496,224.812 167.787 M213.324 176.316 L 213.346 180.263 217.576 180.283 L 221.806 180.302 217.683 180.176 L 213.560 180.051 213.431 176.210 L 213.302 172.368 213.324 176.316 M218.609 175.564 C 219.417 176.391,220.162 177.068,220.265 177.068 C 220.369 177.068,219.793 176.391,218.985 175.564 C 218.177 174.737,217.432 174.060,217.329 174.060 C 217.225 174.060,217.801 174.737,218.609 175.564 M198.216 179.699 C 198.341 180.157,199.177 180.267,202.662 180.284 L 206.955 180.305 202.833 180.176 C 200.163 180.093,198.598 179.887,198.387 179.592 C 198.155 179.265,198.107 179.296,198.216 179.699 M228.725 179.784 C 228.786 180.084,229.432 180.263,230.451 180.263 C 231.470 180.263,232.117 180.084,232.177 179.784 C 232.231 179.520,232.188 179.478,232.083 179.690 C 231.978 179.902,231.244 180.075,230.451 180.075 C 229.659 180.075,228.924 179.902,228.819 179.690 C 228.714 179.478,228.672 179.520,228.725 179.784 M51.074 180.171 C 51.230 180.328,65.643 180.412,83.104 180.359 L 114.850 180.263 82.819 180.075 C 65.203 179.972,50.917 180.015,51.074 180.171 M127.690 180.169 C 127.786 180.324,139.940 180.451,154.699 180.451 C 169.459 180.451,181.613 180.324,181.709 180.169 C 181.805 180.014,169.650 179.887,154.699 179.887 C 139.748 179.887,127.594 180.014,127.690 180.169 M188.676 180.180 C 188.858 180.361,189.492 180.449,190.086 180.375 C 191.080 180.251,191.053 180.225,189.756 180.045 C 188.948 179.934,188.487 179.991,188.676 180.180 M238.968 180.169 C 239.064 180.324,251.979 180.451,267.669 180.451 C 283.359 180.451,296.275 180.324,296.370 180.169 C 296.466 180.014,283.551 179.887,267.669 179.887 C 251.788 179.887,238.872 180.014,238.968 180.169 M328.693 180.357 C 337.135 180.413,350.838 180.413,359.145 180.357 C 367.452 180.301,360.545 180.254,343.797 180.254 C 327.049 180.254,320.252 180.301,328.693 180.357 M213.226 192.011 C 213.188 194.958,213.285 197.369,213.440 197.369 C 213.595 197.370,213.677 195.720,213.622 193.704 C 213.445 187.173,213.295 186.533,213.226 192.011 M200.000 192.975 C 200.000 193.039,200.550 193.589,201.222 194.197 L 202.444 195.301 201.339 194.079 C 200.310 192.940,200.000 192.684,200.000 192.975 M131.955 195.301 C 132.472 195.596,133.064 195.838,133.271 195.838 C 133.477 195.838,133.224 195.596,132.707 195.301 C 132.190 195.005,131.598 194.763,131.391 194.763 C 131.184 194.763,131.438 195.005,131.955 195.301 M195.865 198.308 C 196.566 199.032,197.225 199.624,197.328 199.624 C 197.431 199.624,196.942 199.032,196.241 198.308 C 195.539 197.585,194.881 196.992,194.777 196.992 C 194.674 196.992,195.163 197.585,195.865 198.308 M194.549 200.752 C 195.356 201.579,196.102 202.256,196.205 202.256 C 196.309 202.256,195.732 201.579,194.925 200.752 C 194.117 199.925,193.372 199.248,193.268 199.248 C 193.165 199.248,193.741 199.925,194.549 200.752 M225.564 200.940 C 224.651 201.870,223.988 202.632,224.092 202.632 C 224.195 202.632,225.027 201.870,225.940 200.940 C 226.853 200.009,227.516 199.248,227.412 199.248 C 227.309 199.248,226.477 200.009,225.564 200.940 M231.244 204.657 C 230.419 205.508,230.154 206.019,230.443 206.198 C 230.682 206.346,230.979 206.365,231.103 206.241 C 231.227 206.117,231.098 206.015,230.816 206.015 C 230.529 206.015,230.864 205.437,231.579 204.699 C 232.280 203.976,232.770 203.383,232.666 203.383 C 232.563 203.383,231.923 203.956,231.244 204.657 M188.839 204.378 C 189.364 205.001,189.407 205.230,189.027 205.382 C 188.705 205.511,188.762 205.590,189.192 205.609 C 190.089 205.650,190.018 205.146,189.004 204.288 L 188.158 203.571 188.839 204.378 M213.306 204.292 C 212.953 205.210,213.321 206.890,213.910 207.049 C 214.372 207.173,214.380 207.135,213.958 206.839 C 213.624 206.605,213.497 205.998,213.600 205.118 C 213.766 203.700,213.654 203.385,213.306 204.292 M354.300 204.981 L 353.195 206.203 354.417 205.099 C 355.556 204.070,355.812 203.759,355.521 203.759 C 355.457 203.759,354.907 204.309,354.300 204.981 M197.462 213.041 C 197.824 213.136,198.416 213.136,198.778 213.041 C 199.140 212.947,198.844 212.869,198.120 212.869 C 197.397 212.869,197.101 212.947,197.462 213.041 M227.162 213.041 C 227.523 213.136,228.116 213.136,228.477 213.041 C 228.839 212.947,228.543 212.869,227.820 212.869 C 227.096 212.869,226.800 212.947,227.162 213.041 M202.914 213.423 C 203.379 213.513,204.140 213.513,204.605 213.423 C 205.070 213.334,204.690 213.260,203.759 213.260 C 202.829 213.260,202.448 213.334,202.914 213.423 M220.589 213.430 C 221.265 213.514,222.280 213.512,222.845 213.427 C 223.410 213.341,222.857 213.272,221.617 213.274 C 220.376 213.276,219.914 213.347,220.589 213.430 M213.291 216.729 C 213.290 218.590,213.354 219.399,213.433 218.526 C 213.511 217.654,213.512 216.131,213.435 215.143 C 213.357 214.155,213.292 214.868,213.291 216.729 M357.895 216.283 C 357.895 216.348,358.445 216.898,359.117 217.505 L 360.338 218.609 359.234 217.387 C 358.205 216.248,357.895 215.993,357.895 216.283 M363.142 221.898 C 364.064 222.881,364.868 223.684,364.928 223.684 C 365.210 223.684,364.912 223.347,363.252 221.789 L 361.466 220.113 363.142 221.898 M354.887 222.744 C 355.589 223.468,356.247 224.060,356.351 224.060 C 356.454 224.060,355.965 223.468,355.263 222.744 C 354.562 222.021,353.903 221.429,353.800 221.429 C 353.696 221.429,354.186 222.021,354.887 222.744 M363.158 231.767 C 363.859 232.491,364.518 233.083,364.621 233.083 C 364.725 233.083,364.235 232.491,363.534 231.767 C 362.832 231.043,362.174 230.451,362.071 230.451 C 361.967 230.451,362.456 231.043,363.158 231.767 M366.330 231.673 L 365.226 232.895 366.447 231.791 C 367.119 231.183,367.669 230.633,367.669 230.569 C 367.669 230.278,367.359 230.534,366.330 231.673 M211.748 252.525 C 212.317 252.611,213.247 252.611,213.816 252.525 C 214.384 252.439,213.919 252.368,212.782 252.368 C 211.645 252.368,211.180 252.439,211.748 252.525 M205.169 252.904 C 205.841 252.987,206.941 252.987,207.613 252.904 C 208.285 252.820,207.735 252.752,206.391 252.752 C 205.047 252.752,204.497 252.820,205.169 252.904 M195.395 253.279 C 196.067 253.363,197.166 253.363,197.838 253.279 C 198.510 253.196,197.961 253.128,196.617 253.128 C 195.273 253.128,194.723 253.196,195.395 253.279 M207.994 259.292 C 208.565 259.379,209.411 259.376,209.874 259.287 C 210.336 259.198,209.868 259.127,208.835 259.130 C 207.801 259.133,207.422 259.206,207.994 259.292 M196.711 259.675 C 197.693 259.752,199.300 259.752,200.282 259.675 C 201.264 259.597,200.461 259.534,198.496 259.534 C 196.532 259.534,195.728 259.597,196.711 259.675 M217.796 263.158 C 217.796 264.709,217.862 265.343,217.943 264.568 C 218.024 263.792,218.024 262.523,217.943 261.748 C 217.862 260.973,217.796 261.607,217.796 263.158 M224.538 267.293 C 224.538 268.224,224.612 268.604,224.701 268.139 C 224.791 267.674,224.791 266.913,224.701 266.447 C 224.612 265.982,224.538 266.363,224.538 267.293 " stroke="none" fill="#7c7c7c" fill-rule="evenodd"></path><path id="path3" d="M195.019 95.385 C 195.691 95.468,196.790 95.468,197.462 95.385 C 198.134 95.301,197.585 95.233,196.241 95.233 C 194.897 95.233,194.347 95.301,195.019 95.385 M200.471 97.180 C 200.475 98.008,200.552 98.302,200.642 97.834 C 200.732 97.366,200.728 96.690,200.634 96.330 C 200.540 95.971,200.467 96.353,200.471 97.180 M193.704 99.812 C 193.708 100.639,193.785 100.933,193.875 100.466 C 193.965 99.998,193.961 99.321,193.867 98.962 C 193.773 98.602,193.700 98.985,193.704 99.812 M215.695 107.408 C 216.161 107.498,216.922 107.498,217.387 107.408 C 217.852 107.319,217.472 107.245,216.541 107.245 C 215.611 107.245,215.230 107.319,215.695 107.408 M206.109 107.778 C 206.471 107.873,207.063 107.873,207.425 107.778 C 207.787 107.683,207.491 107.606,206.767 107.606 C 206.043 107.606,205.747 107.683,206.109 107.778 M189.008 108.913 C 189.476 109.002,190.152 108.999,190.512 108.905 C 190.871 108.811,190.489 108.737,189.662 108.741 C 188.835 108.746,188.541 108.823,189.008 108.913 M219.267 114.179 C 219.836 114.265,220.766 114.265,221.335 114.179 C 221.903 114.093,221.438 114.022,220.301 114.022 C 219.164 114.022,218.698 114.093,219.267 114.179 M209.305 114.558 C 209.977 114.641,211.076 114.641,211.748 114.558 C 212.420 114.474,211.870 114.406,210.526 114.406 C 209.182 114.406,208.633 114.474,209.305 114.558 M203.102 114.931 C 203.670 115.017,204.601 115.017,205.169 114.931 C 205.738 114.845,205.273 114.774,204.135 114.774 C 202.998 114.774,202.533 114.845,203.102 114.931 M197.279 115.303 C 197.746 115.393,198.423 115.390,198.783 115.296 C 199.142 115.202,198.759 115.128,197.932 115.132 C 197.105 115.137,196.811 115.214,197.279 115.303 M61.654 141.471 C 61.654 141.536,62.204 142.086,62.876 142.693 L 64.098 143.797 62.994 142.575 C 61.964 141.436,61.654 141.181,61.654 141.471 M57.143 146.805 C 57.844 147.528,58.503 148.120,58.606 148.120 C 58.710 148.120,58.220 147.528,57.519 146.805 C 56.817 146.081,56.159 145.489,56.056 145.489 C 55.952 145.489,56.441 146.081,57.143 146.805 M66.819 146.992 C 67.521 147.752,67.739 147.818,68.135 147.393 C 68.518 146.980,68.514 146.936,68.115 147.162 C 67.832 147.323,67.271 147.152,66.800 146.761 C 65.996 146.096,65.996 146.101,66.819 146.992 M206.528 150.940 C 206.529 153.008,206.592 153.805,206.669 152.713 C 206.745 151.621,206.744 149.929,206.667 148.954 C 206.590 147.978,206.527 148.872,206.528 150.940 M59.764 154.793 L 57.331 157.331 59.868 154.898 C 61.264 153.560,62.406 152.418,62.406 152.360 C 62.406 152.084,62.023 152.436,59.764 154.793 M195.207 154.781 C 195.775 154.867,196.706 154.867,197.274 154.781 C 197.843 154.694,197.378 154.624,196.241 154.624 C 195.103 154.624,194.638 154.694,195.207 154.781 M216.635 154.781 C 217.204 154.867,218.134 154.867,218.703 154.781 C 219.272 154.694,218.806 154.624,217.669 154.624 C 216.532 154.624,216.067 154.694,216.635 154.781 M189.944 155.146 C 190.305 155.241,190.898 155.241,191.259 155.146 C 191.621 155.052,191.325 154.974,190.602 154.974 C 189.878 154.974,189.582 155.052,189.944 155.146 M222.843 155.153 C 223.310 155.243,223.987 155.240,224.346 155.146 C 224.706 155.051,224.323 154.978,223.496 154.982 C 222.669 154.986,222.375 155.063,222.843 155.153 M186.184 155.522 C 186.546 155.617,187.138 155.617,187.500 155.522 C 187.862 155.428,187.566 155.350,186.842 155.350 C 186.118 155.350,185.822 155.428,186.184 155.522 M226.786 155.522 C 227.148 155.617,227.740 155.617,228.102 155.522 C 228.463 155.428,228.167 155.350,227.444 155.350 C 226.720 155.350,226.424 155.428,226.786 155.522 M65.401 158.929 L 63.346 161.090 65.508 159.035 C 66.696 157.905,67.669 156.932,67.669 156.874 C 67.669 156.595,67.310 156.920,65.401 158.929 M206.361 164.379 C 206.249 165.188,206.307 165.648,206.496 165.459 C 206.677 165.278,206.765 164.643,206.691 164.050 C 206.567 163.056,206.541 163.082,206.361 164.379 M206.306 175.281 C 206.483 179.963,206.644 180.418,206.707 176.410 C 206.740 174.290,206.640 172.556,206.485 172.556 C 206.330 172.555,206.249 173.782,206.306 175.281 M60.968 187.124 C 71.032 187.180,87.611 187.180,97.810 187.124 C 108.009 187.068,99.774 187.023,79.511 187.023 C 59.248 187.023,50.903 187.068,60.968 187.124 M131.274 187.038 C 131.384 187.149,142.651 187.232,156.310 187.223 C 175.999 187.211,181.179 187.306,181.305 187.683 C 181.399 187.965,181.447 187.929,181.422 187.594 C 181.386 187.100,178.271 187.018,156.227 186.933 C 142.392 186.880,131.163 186.927,131.274 187.038 M202.056 187.117 L 206.369 187.242 206.490 192.023 L 206.612 196.805 206.595 191.917 L 206.579 187.030 202.161 187.011 L 197.743 186.993 202.056 187.117 M217.655 187.117 C 220.477 187.200,222.076 187.402,222.289 187.701 C 222.521 188.028,222.570 187.998,222.460 187.594 C 222.335 187.134,221.479 187.026,217.826 187.010 L 213.346 186.990 217.655 187.117 M229.574 187.093 C 229.436 187.231,229.326 187.527,229.329 187.751 C 229.333 188.015,229.433 188.004,229.614 187.719 C 229.768 187.477,230.484 187.208,231.206 187.121 L 232.519 186.962 231.172 186.902 C 230.431 186.869,229.712 186.955,229.574 187.093 M239.227 187.422 C 239.105 187.741,239.110 188.108,239.239 188.237 C 239.368 188.366,239.474 188.187,239.474 187.840 C 239.474 187.255,241.570 187.210,268.475 187.223 C 284.425 187.230,297.564 187.148,297.673 187.039 C 297.781 186.931,284.725 186.842,268.660 186.842 C 242.680 186.842,239.425 186.906,239.227 187.422 M325.686 187.124 C 333.093 187.181,345.104 187.181,352.377 187.124 C 359.651 187.067,353.590 187.020,338.910 187.020 C 324.229 187.020,318.278 187.067,325.686 187.124 M206.361 205.357 C 206.249 206.165,206.307 206.626,206.496 206.436 C 206.677 206.255,206.765 205.621,206.691 205.027 C 206.567 204.033,206.541 204.059,206.361 205.357 M194.831 213.041 C 195.193 213.136,195.785 213.136,196.147 213.041 C 196.508 212.947,196.212 212.869,195.489 212.869 C 194.765 212.869,194.469 212.947,194.831 213.041 M229.793 213.041 C 230.155 213.136,230.747 213.136,231.109 213.041 C 231.471 212.947,231.175 212.869,230.451 212.869 C 229.727 212.869,229.431 212.947,229.793 213.041 M199.347 213.428 C 199.919 213.514,200.765 213.512,201.227 213.423 C 201.689 213.333,201.222 213.263,200.188 213.265 C 199.154 213.268,198.776 213.341,199.347 213.428 M224.718 213.423 C 225.183 213.513,225.945 213.513,226.410 213.423 C 226.875 213.334,226.494 213.260,225.564 213.260 C 224.633 213.260,224.253 213.334,224.718 213.423 M205.248 213.745 L 206.361 213.955 206.470 217.034 L 206.579 220.113 210.057 220.135 L 213.536 220.158 210.166 220.027 L 206.797 219.897 206.688 216.809 L 206.579 213.722 205.357 213.628 C 204.180 213.537,204.176 213.542,205.248 213.745 M216.460 213.811 C 217.552 213.888,219.244 213.887,220.219 213.810 C 221.195 213.732,220.301 213.670,218.233 213.671 C 216.165 213.672,215.368 213.735,216.460 213.811 M356.015 214.027 C 356.015 214.092,356.565 214.642,357.237 215.249 L 358.459 216.353 357.354 215.132 C 356.325 213.993,356.015 213.737,356.015 214.027 M351.504 219.361 C 352.205 220.085,352.864 220.677,352.967 220.677 C 353.070 220.677,352.581 220.085,351.880 219.361 C 351.178 218.637,350.520 218.045,350.416 218.045 C 350.313 218.045,350.802 218.637,351.504 219.361 M361.842 220.301 C 362.650 221.128,363.395 221.805,363.498 221.805 C 363.602 221.805,363.026 221.128,362.218 220.301 C 361.410 219.474,360.665 218.797,360.562 218.797 C 360.458 218.797,361.034 219.474,361.842 220.301 M355.263 223.426 C 355.263 223.491,355.813 224.040,356.485 224.648 L 357.707 225.752 356.603 224.530 C 355.573 223.391,355.263 223.135,355.263 223.426 M209.117 252.515 C 209.478 252.609,210.070 252.609,210.432 252.515 C 210.794 252.420,210.498 252.343,209.774 252.343 C 209.051 252.343,208.755 252.420,209.117 252.515 M199.347 252.901 C 199.919 252.988,200.765 252.985,201.227 252.896 C 201.689 252.807,201.222 252.736,200.188 252.739 C 199.154 252.742,198.776 252.815,199.347 252.901 M194.118 256.203 C 194.117 258.064,194.181 258.873,194.260 258.000 C 194.339 257.128,194.339 255.605,194.262 254.617 C 194.184 253.628,194.120 254.342,194.118 256.203 M211.748 259.292 C 212.317 259.378,213.247 259.378,213.816 259.292 C 214.384 259.206,213.919 259.135,212.782 259.135 C 211.645 259.135,211.180 259.206,211.748 259.292 M203.477 259.672 C 204.253 259.753,205.522 259.753,206.297 259.672 C 207.072 259.591,206.438 259.525,204.887 259.525 C 203.336 259.525,202.702 259.591,203.477 259.672 M195.395 260.046 C 196.067 260.130,197.166 260.130,197.838 260.046 C 198.510 259.963,197.961 259.895,196.617 259.895 C 195.273 259.895,194.723 259.963,195.395 260.046 M224.538 263.910 C 224.538 264.840,224.612 265.221,224.701 264.756 C 224.791 264.290,224.791 263.529,224.701 263.064 C 224.612 262.599,224.538 262.979,224.538 263.910 M217.793 268.233 C 217.794 269.680,217.862 270.226,217.944 269.447 C 218.025 268.667,218.024 267.482,217.941 266.815 C 217.857 266.148,217.791 266.786,217.793 268.233 M220.959 270.942 C 221.424 271.032,222.185 271.032,222.650 270.942 C 223.116 270.852,222.735 270.779,221.805 270.779 C 220.874 270.779,220.493 270.852,220.959 270.942 " stroke="none" fill="#a1a1a1" fill-rule="evenodd"></path><path id="path4" d="M193.696 97.368 C 193.696 98.092,193.774 98.388,193.868 98.026 C 193.963 97.664,193.963 97.072,193.868 96.711 C 193.774 96.349,193.696 96.645,193.696 97.368 M202.350 252.891 C 202.711 252.985,203.304 252.985,203.665 252.891 C 204.027 252.796,203.731 252.719,203.008 252.719 C 202.284 252.719,201.988 252.796,202.350 252.891 " stroke="none" fill="#8c8c8c" fill-rule="evenodd"></path></g></svg>