<?xml version="1.0" standalone="no"?>
<!DOCTYPE svg PUBLIC "-//W3C//DTD SVG 20010904//EN"
 "http://www.w3.org/TR/2001/REC-SVG-20010904/DTD/svg10.dtd">
<svg version="1.0" xmlns="http://www.w3.org/2000/svg"
 width="333.000000pt" height="283.000000pt" viewBox="0 0 333.000000 283.000000"
 preserveAspectRatio="xMidYMid meet">

<g transform="translate(0.000000,283.000000) scale(0.100000,-0.100000)"
fill="#000000" stroke="none">
<path d="M0 1415 l0 -1415 1665 0 1665 0 0 1415 0 1415 -1665 0 -1665 0 0
-1415z m1580 906 c0 -90 -5 -86 120 -83 91 3 110 1 110 -11 0 -11 -27 -15
-132 -21 -703 -37 -1167 -188 -1434 -468 -54 -56 -124 -168 -124 -198 0 -7
107 -10 319 -10 l319 0 74 43 c214 126 483 198 783 210 l60 2 3 43 c2 28 8 42
18 42 10 0 14 -12 14 -43 l0 -43 138 -13 c238 -22 517 -95 764 -200 l97 -41
282 0 282 0 -7 -30 c-10 -54 -59 -140 -118 -210 l-57 -69 70 -75 c52 -56 69
-81 64 -94 -5 -14 -21 -1 -84 67 l-77 83 -29 -24 c-110 -92 -264 -169 -502
-253 -8 -3 -6 -21 8 -65 23 -73 24 -90 5 -90 -9 0 -20 25 -31 65 -10 36 -21
68 -25 70 -4 2 -76 -11 -161 -30 -137 -30 -286 -53 -461 -71 l-57 -5 6 -63 c4
-44 2 -65 -6 -71 -18 -11 -21 -4 -28 68 l-6 65 -118 -5 c-100 -5 -119 -4 -119
9 0 12 37 17 198 27 539 33 959 148 1227 336 84 60 199 184 235 254 16 33 30
65 30 71 0 7 -92 10 -270 10 l-270 0 -83 -45 c-222 -120 -587 -215 -828 -215
l-69 0 0 -40 c0 -54 -27 -56 -32 -2 l-3 37 -90 7 c-250 21 -481 88 -716 209
l-95 49 -348 0 -348 0 6 33 c11 57 66 152 128 221 l60 67 -70 78 c-49 54 -68
81 -61 88 8 8 34 -13 86 -67 l74 -78 66 49 c79 59 255 147 381 190 50 17 92
37 92 43 0 6 -9 39 -19 73 -10 34 -16 64 -13 67 15 16 30 1 40 -41 6 -27 15
-60 21 -74 l10 -27 98 24 c114 28 301 58 461 75 l112 12 0 67 c0 36 3 70 7 73
16 17 23 3 23 -52z"/>
<path d="M1510 1744 c-14 -2 -63 -9 -110 -15 -106 -14 -212 -40 -327 -80 -85
-30 -243 -104 -243 -114 0 -3 134 -5 299 -5 l299 0 10 43 c15 57 47 104 100
144 46 35 43 37 -28 27z"/>
<path d="M1710 1709 c0 -25 6 -32 40 -45 44 -18 96 -71 106 -109 5 -19 13 -25
34 -25 39 0 42 9 19 60 -34 75 -81 116 -161 138 -38 10 -38 10 -38 -19z"/>
<path d="M1880 1691 c35 -35 53 -64 66 -105 l18 -56 323 0 c178 0 323 2 323 4
0 8 -204 84 -310 116 -122 36 -210 56 -335 76 -142 22 -142 22 -85 -35z"/>
<path d="M1589 1710 c-46 -24 -107 -94 -118 -135 -10 -37 -6 -45 24 -45 18 0
26 8 34 33 15 43 59 85 107 102 30 10 40 19 42 39 3 23 0 26 -25 26 -15 -1
-44 -10 -64 -20z"/>
<path d="M1617 1622 c-35 -23 -56 -52 -57 -75 0 -16 8 -18 58 -15 l57 3 3 53
c3 45 0 52 -15 52 -10 0 -30 -8 -46 -18z"/>
<path d="M1710 1585 l0 -55 60 0 c33 0 60 2 60 5 0 20 -36 69 -63 85 -50 31
-57 27 -57 -35z"/>
<path d="M860 1494 c0 -11 191 -95 305 -133 101 -34 313 -81 363 -81 8 0 -5
21 -30 49 -42 47 -68 104 -68 150 0 21 -1 21 -285 21 -157 0 -285 -3 -285 -6z"/>
<path d="M1465 1463 c9 -48 37 -102 67 -130 30 -29 115 -66 134 -59 20 8 18
56 -3 56 -9 0 -36 11 -60 25 -44 26 -83 85 -83 125 0 16 -6 20 -31 20 -31 0
-31 -1 -24 -37z"/>
<path d="M1554 1473 c4 -16 15 -39 25 -53 19 -27 79 -62 93 -54 4 3 8 34 8 70
l0 64 -66 0 -66 0 6 -27z"/>
<path d="M1710 1431 l0 -70 29 10 c39 14 79 58 87 97 l7 32 -62 0 -61 0 0 -69z"/>
<path d="M1866 1488 c-3 -7 -7 -26 -11 -43 -8 -37 -74 -101 -114 -110 -26 -6
-31 -11 -31 -37 0 -29 2 -30 33 -24 84 17 167 103 183 189 6 36 6 37 -25 37
-17 0 -33 -6 -35 -12z"/>
<path d="M1956 1459 c-9 -56 -31 -96 -79 -147 l-42 -42 30 4 c17 3 68 10 115
16 195 26 459 109 595 187 l40 23 -326 0 -326 0 -7 -41z"/>
</g>
</svg>
