<?xml version="1.0" standalone="no"?>
<!DOCTYPE svg PUBLIC "-//W3C//DTD SVG 20010904//EN"
 "http://www.w3.org/TR/2001/REC-SVG-20010904/DTD/svg10.dtd">
<svg version="1.0" xmlns="http://www.w3.org/2000/svg"
 width="59.000000pt" height="50.000000pt" viewBox="0 0 59.000000 50.000000"
 preserveAspectRatio="xMidYMid meet">

<g transform="translate(0.000000,50.000000) scale(0.100000,-0.100000)"
fill="#000000" stroke="none">
<path d="M0 250 l0 -250 295 0 295 0 0 250 0 250 -295 0 -295 0 0 -250z m233
133 c-7 -2 -19 -2 -25 0 -7 3 -2 5 12 5 14 0 19 -2 13 -5z m-56 -9 c-3 -3 -12
-4 -19 -1 -8 3 -5 6 6 6 11 1 17 -2 13 -5z m-117 -48 c0 -2 -8 -10 -17 -17
-16 -13 -17 -12 -4 4 13 16 21 21 21 13z m266 -21 c19 -15 19 -15 -1 -9 -17 6
-18 5 -7 -7 7 -8 17 -14 23 -14 11 0 13 -15 2 -16 -5 0 -14 -6 -22 -12 -12
-10 -8 -13 20 -18 23 -4 12 -6 -36 -6 -38 0 -57 2 -42 4 23 4 26 7 16 19 -6 7
-15 11 -20 8 -5 -3 -9 1 -9 9 0 11 9 14 38 11 35 -5 36 -4 17 11 -11 8 -26 13
-35 10 -9 -3 -7 1 4 10 11 8 23 15 26 15 3 0 15 -7 26 -15z m51 -1 c-3 -3 -12
-4 -19 -1 -8 3 -5 6 6 6 11 1 17 -2 13 -5z m-212 -24 c-3 -5 2 -10 12 -10 13
0 15 -2 5 -9 -7 -4 -25 -6 -39 -3 l-26 5 24 13 c29 16 32 17 24 4z m414 -16
c3 -3 -1 -10 -9 -17 -10 -10 -11 -9 -5 1 6 11 -4 13 -51 10 -33 -2 -66 -7 -74
-9 -8 -3 -12 -4 -7 -2 4 3 4 10 1 15 -4 7 -2 8 4 4 7 -4 12 -3 12 2 0 8 120 4
129 -4z m-516 -1 c-7 -2 -19 -2 -25 0 -7 3 -2 5 12 5 14 0 19 -2 13 -5z m174
1 c-3 -3 -12 -4 -19 -1 -8 3 -5 6 6 6 11 1 17 -2 13 -5z m320 -41 c-4 -3 -1
-13 6 -22 11 -14 10 -14 -5 -2 -16 12 -16 31 -1 31 4 0 3 -3 0 -7z m-107 -63
c0 -5 -2 -10 -4 -10 -3 0 -8 5 -11 10 -3 6 -1 10 4 10 6 0 11 -4 11 -10z m-43
-6 c-3 -3 -12 -4 -19 -1 -8 3 -5 6 6 6 11 1 17 -2 13 -5z m-64 -11 c-13 -2
-33 -2 -45 0 -13 2 -3 4 22 4 25 0 35 -2 23 -4z"/>
<path d="M288 248 c9 -9 15 -9 24 0 9 9 7 12 -12 12 -19 0 -21 -3 -12 -12z"/>
</g>
</svg>
